<svg width="34" height="95" viewBox="0 0 34 95" fill="none" xmlns="http://www.w3.org/2000/svg">
<g id="Union">
<path d="M17 11C17.5523 11 18 11.4477 18 12V22C18 22.5523 17.5523 23 17 23C16.4477 23 16 22.5523 16 22V12C16 11.4477 16.4477 11 17 11Z" fill="white"/>
<path fill-rule="evenodd" clip-rule="evenodd" d="M17 0C7.61116 0 0 7.61116 0 17V31C0 40.3888 7.61116 48 17 48C26.3888 48 34 40.3888 34 31V17C34 7.61116 26.3888 0 17 0ZM32 31V17C32 8.71573 25.2843 2 17 2C8.71573 2 2 8.71573 2 17V31C2 39.2843 8.71573 46 17 46C25.2843 46 32 39.2843 32 31Z" fill="white"/>
<path d="M16.9997 58C17.552 58 17.9997 58.4477 17.9997 59V87.5H23.0619L16.9997 95L10.9375 87.5H15.9997V59C15.9997 58.4477 16.4474 58 16.9997 58Z" fill="white"/>
</g>
</svg>
