<svg width="253" height="57" viewBox="0 0 253 57" fill="none" xmlns="http://www.w3.org/2000/svg">
<path d="M7.6959 28.5C7.6959 41.59 13.1559 52.3 23.4459 52.3C24.3559 52.3 25.2659 52.09 26.1059 51.95C32.8959 50.27 33.5259 39.63 33.5259 39.63H34.2259V49.78C34.2259 50.27 33.9459 50.76 33.4559 50.97C30.5859 52.3 26.9459 53 23.6559 53C10.7759 53 0.345898 41.94 0.345898 28.36C0.345898 15.06 10.7759 4 23.6559 4C27.2259 4 31.2159 4.84 34.2259 6.38V17.65H33.5259C33.5259 17.65 32.8959 6.45 25.9659 4.91C25.6159 4.84 24.7059 4.7 23.3759 4.7C13.1559 4.7 7.6959 15.69 7.6959 28.5ZM51.0822 4V4.7H48.3522C47.7222 4.7 47.7222 5.26 47.7222 5.61V40.61C47.7222 40.61 47.6522 44.04 48.0722 45.44C50.1722 52.79 56.1922 52.3 56.1922 52.3H62.3522C62.9822 52.3 63.4722 51.6 63.4722 50.97V42.64H64.1722V53H56.1922C48.6322 53 47.3022 45.72 47.3022 45.72C47.3022 53.42 41.4222 53 41.4222 53H37.7822V52.3H41.1422C42.9622 52.3 42.8222 50.48 42.8222 50.48V5.75C42.8222 5.19 42.4022 4.7 41.9122 4.7H39.3222V4H51.0822ZM75.8349 7.08C87.8049 0.499996 102.855 4.84 109.435 16.74C116.015 28.71 111.745 43.27 99.7749 49.92C87.8049 56.5 72.8249 52.16 66.1749 40.26C59.5949 28.29 63.9349 13.73 75.8349 7.08ZM99.4949 49.29C108.455 44.32 110.345 31.23 103.975 19.75C97.6749 8.27 85.2849 2.81 76.3249 7.71C67.3649 12.68 65.2649 25.77 71.6349 37.25C77.9349 48.73 90.6049 54.26 99.4949 49.29ZM147.478 4V11.42H146.778V5.47C146.778 5.05 146.498 4.7 146.148 4.7H133.618C133.128 4.7 132.778 5.12 132.778 5.61V51.25C132.778 51.74 133.128 52.3 133.548 52.3H137.398V53H122.558V52.3H126.408C126.828 52.3 127.248 51.74 127.248 51.25V5.75C127.248 5.19 126.828 4.7 126.338 4.7H113.948C113.528 4.7 113.178 5.12 113.178 5.61V11.42H112.478V4H147.478ZM183.789 10.86C183.019 13.52 181.339 16.67 178.959 19.54C178.679 19.89 178.539 20.31 178.539 20.73V51.46C178.539 51.95 178.959 52.3 179.449 52.3H183.579V53H168.109V52.3H172.309C172.729 52.3 173.079 51.95 173.079 51.53V25.42C170.769 27.66 168.109 29.41 165.449 31.79C162.019 34.73 159.639 37.11 158.029 39.42C157.819 39.77 157.679 39.84 157.679 40.26V51.46C157.679 51.88 158.029 52.3 158.519 52.3H162.299V53H146.829V52.3H151.029C151.659 52.3 152.219 51.81 152.219 51.18V5.68C152.219 5.12 151.729 4.7 151.169 4.7H146.829V4H162.299V4.7H158.519C158.029 4.7 157.679 5.12 157.679 5.54V38.37C157.679 38.51 157.819 38.58 157.959 38.44C162.019 33.33 168.459 28.57 173.079 24.37V11.98C173.079 11.98 173.149 9.88 173.709 8.55C175.039 5.12 177.419 4 180.009 4C181.689 4 185.539 4.56 183.789 10.86ZM181.479 5.12C178.329 4.7 178.539 11.98 178.539 11.98V18.63C183.019 12.68 185.049 5.68 181.479 5.12ZM217.041 15.06C217.041 15.06 217.111 14.5 217.041 13.59C216.901 10.79 215.711 4.7 208.291 4.7H198.841C198.211 4.7 197.511 5.05 197.161 5.54C196.251 7.01 195.411 9.95 196.461 15.9C198.771 28.01 208.571 26.82 208.571 26.82V27.52C208.571 27.52 198.771 26.47 196.461 39.77C195.341 46.42 196.251 49.71 197.231 51.25C197.581 51.88 198.281 52.3 199.051 52.3H208.291C215.711 52.3 216.901 46.14 217.111 43.34V41.94H217.811V53H217.111V48.87C217.111 48.59 216.691 48.52 216.551 48.73C213.751 53.49 208.291 53 208.291 53H184.071V52.3H190.791C191.351 52.3 191.701 51.81 191.491 51.32C190.231 49.15 188.551 44.25 191.491 37.95C194.431 31.58 200.591 28.64 203.741 27.52C204.091 27.38 204.091 26.96 203.741 26.82C200.521 25.77 194.361 23.32 191.491 17.58C188.621 12.05 190.161 7.78 191.351 5.68C191.631 5.26 191.281 4.7 190.721 4.7H184.071V4H208.291C208.291 4 213.751 3.44 216.551 8.2C216.691 8.41 217.041 8.34 217.041 8.06V2.67H217.741V15.06H217.041ZM251.061 41.31C249.521 48.8 239.931 55.87 229.501 51.81C224.181 49.78 221.801 46.21 220.821 43.27V53H220.121V37.25H220.821V38.09C220.821 41.17 221.241 45.09 225.861 48.38C234.051 54.26 242.591 49.85 245.041 42.78C247.631 35.36 241.681 31.72 233.911 28.71C226.491 25.84 220.401 23.11 220.751 14.22C221.031 5.26 231.671 2.11 239.161 5.05C243.221 6.59 245.041 9.32 245.881 11.56V4H246.581V15.06H245.881C245.881 15.06 243.921 3.58 232.301 6.52C223.761 8.69 224.181 20.38 236.361 23.88C249.941 27.87 252.671 33.89 251.061 41.31Z" fill="white"/>
</svg>
