<svg width="325" height="67" viewBox="0 0 325 67" fill="none" xmlns="http://www.w3.org/2000/svg">
<path d="M0.064453 67V66.09C2.86445 66.09 4.89445 64.76 5.87445 60L13.2245 26.61C14.0645 22.55 13.0145 21.22 9.93445 21.22L10.0045 20.31C14.0645 20.03 17.7045 19.47 22.1145 16.74L22.6745 17.23L21.2745 23.53L18.9645 34.45C22.3245 25.56 28.5545 16.81 34.8545 16.81C41.7845 16.81 44.4445 24.44 42.6245 33.05C40.1045 44.81 30.8645 53.56 21.4145 53.56C18.4045 53.56 16.5145 52.44 15.3945 51.04L13.5045 60C12.4545 64.76 14.8345 66.09 18.1245 66.09V67H0.064453ZM17.4945 42.71C16.2345 48.31 17.3545 52.3 20.9945 52.3C24.9845 52.3 30.5145 47.26 33.8045 37.11C37.2345 26.4 34.9945 21.01 31.2845 21.01C26.5245 21.01 19.6645 32.49 17.4945 42.71ZM50.0767 26.61C50.9867 22.48 49.9367 21.22 46.8567 21.15V20.24C50.9867 19.96 54.6267 19.47 58.9667 16.74L59.5967 17.23L58.2667 23.53L54.7667 40.05C58.7567 26.61 62.7467 17.72 68.1367 16.88C70.7967 16.46 73.0367 18.14 73.3867 20.45C73.6667 22.62 72.5467 25.28 69.8167 25.77C67.7167 26.12 66.1767 24.65 65.6867 23.39C65.2667 22.41 64.6367 21.71 63.3767 22.55C61.3467 23.74 56.5867 34.17 51.9667 53H44.3367L50.0767 26.61ZM82.1127 53.63C73.4327 53.63 67.8327 45.44 70.3527 34.17C72.9427 23.04 82.1827 16.74 90.3727 16.74C98.7727 16.74 104.513 24.65 101.923 35.92C99.4027 47.19 90.2327 53.63 82.1127 53.63ZM78.1227 35.5C75.9527 46.63 78.1227 52.65 82.8827 52.51C87.2227 52.37 91.7727 45.93 94.0827 34.8C96.2527 23.81 94.4327 17.72 89.6727 17.86C85.0527 18 80.2927 24.72 78.1227 35.5ZM112.966 53.7C106.386 53.7 103.866 46.07 105.686 37.46C108.206 25.7 117.236 16.95 126.686 16.95C129.066 16.95 131.026 17.86 132.286 18.98L133.966 10.37C134.806 6.24 133.756 4.98 130.746 4.91V4C134.806 3.72 138.446 3.16 142.786 0.429997L143.416 0.919999L142.086 7.22L135.086 40.26C133.896 45.79 132.846 49.08 134.456 49.22C135.926 49.43 138.586 46 140.616 38.3L141.246 38.51C138.516 50.27 133.546 54.05 129.626 53.28C125.706 52.58 125.916 48.17 127.386 41.38L128.366 37.18C124.936 45.58 118.916 53.7 112.966 53.7ZM113.876 33.4C110.516 44.11 112.686 49.5 116.466 49.5C120.946 49.5 127.526 40.05 129.766 28.85C131.026 22.27 129.976 18.14 126.546 18.14C122.696 18.14 117.166 23.25 113.876 33.4ZM149.712 53.7C144.462 53.7 142.642 49.5 144.742 40.96L148.452 26.33C149.432 22.27 148.382 20.94 145.372 20.87L145.442 19.89C149.502 19.75 153.142 19.33 157.622 16.74L158.182 17.23L156.642 23.46L152.722 39.21C150.622 47.33 151.882 49.43 154.052 49.43C158.952 49.43 166.442 36.69 171.202 17.3H178.622L173.862 40.05C172.672 45.65 171.622 48.94 173.232 49.01C174.702 49.22 177.432 45.79 179.392 38.16L180.022 38.3C177.292 50.06 172.392 53.84 168.402 53.14C164.482 52.37 164.692 47.96 166.092 41.17L168.542 29.83C163.642 44.39 156.782 53.7 149.712 53.7ZM194.22 53.63C186.24 53.56 180.92 47.05 182.04 37.46C183.3 26.26 192.4 16.95 202.41 16.95C207.73 16.95 210.81 19.96 211.09 23.74C211.3 26.89 209.55 28.43 207.73 28.71C205.35 28.99 203.67 27.52 203.46 25.42C203.18 23.04 205.28 21.78 205 19.96C204.79 18.49 203.6 17.86 202.06 18C196.88 18.21 191.14 25.56 189.81 34.31C188.34 43.41 191.91 49.36 198 49.36C203.46 49.36 208.71 44.32 210.81 35.08L211.51 35.22C209.2 46.21 201.85 53.63 194.22 53.63ZM220.561 53.7C214.891 53.7 213.001 49.15 214.401 42.36L219.021 20.31H214.471L214.611 19.33C220.421 18.91 225.601 15.2 228.051 8.83H229.031L227.211 17.51H237.781L235.961 20.31H226.511L222.101 41.52C220.981 46.84 221.681 49.57 224.411 49.71C227.421 49.85 231.201 45.51 233.791 39.28L234.491 39.56C231.691 47.68 225.881 53.7 220.561 53.7ZM247.463 11.35C244.663 11.35 242.983 9.32 243.193 6.45C243.473 3.79 245.573 1.76 248.373 1.76C251.173 1.76 252.923 3.79 252.643 6.45C252.433 9.32 250.333 11.35 247.463 11.35ZM237.033 21.15V20.24C241.163 19.96 244.803 19.47 249.143 16.74L249.773 17.23L248.373 23.53L244.873 40.26C243.683 45.86 242.562 49.15 244.173 49.22C245.713 49.43 248.373 46 250.333 38.37L250.963 38.51C248.233 50.27 243.263 54.05 239.343 53.28C235.423 52.58 235.633 48.17 237.103 41.38L240.253 26.61C241.163 22.48 240.113 21.22 237.033 21.15ZM265.384 53.63C256.704 53.63 251.104 45.44 253.624 34.17C256.214 23.04 265.454 16.74 273.644 16.74C282.044 16.74 287.784 24.65 285.194 35.92C282.674 47.19 273.504 53.63 265.384 53.63ZM261.394 35.5C259.224 46.63 261.394 52.65 266.154 52.51C270.494 52.37 275.044 45.93 277.354 34.8C279.524 23.81 277.704 17.72 272.944 17.86C268.324 18 263.564 24.72 261.394 35.5ZM286.947 53L292.547 26.61C293.457 22.55 292.337 21.22 289.327 21.22V20.31C293.457 20.03 297.097 19.47 301.437 16.74L301.997 17.23L300.667 23.53L296.957 40.82C301.927 26.19 308.997 16.81 316.207 16.81C321.387 16.81 323.557 21.08 321.177 29.55L318.097 40.75C316.557 46.21 315.227 49.43 316.837 49.64C318.307 49.92 321.247 46.63 323.697 39.14L324.327 39.35C320.827 50.9 315.717 54.4 311.797 53.42C307.947 52.44 308.437 48.1 310.327 41.38L313.197 31.3C315.577 23.18 313.967 21.08 311.797 21.08C306.897 21.08 299.127 33.68 294.367 53H286.947Z" fill="white"/>
</svg>
