<svg width="651" height="144" viewBox="0 0 651 144" fill="none" xmlns="http://www.w3.org/2000/svg">
<path d="M139.91 99.448C139.91 104.979 139.016 110.347 137.226 115.552C135.437 120.757 132.021 125.393 126.978 129.46C122.098 133.364 115.104 136.536 105.994 138.976C97.0476 141.416 85.3356 142.636 70.8583 142.636C57.845 142.636 46.9463 141.335 38.1623 138.732C29.3783 136.292 22.221 132.957 16.6903 128.728C11.3223 124.336 7.41831 119.375 4.97831 113.844C2.53831 108.151 1.15565 102.213 0.830313 96.032H23.5223C24.0103 102.213 25.881 107.093 29.1343 110.672C32.3876 114.088 36.4543 116.691 41.3343 118.48C46.377 120.107 51.9077 121.164 57.9263 121.652C63.945 121.977 70.045 122.14 76.2263 122.14C89.8903 122.14 100.057 120.269 106.726 116.528C113.396 112.624 116.73 107.581 116.73 101.4C116.73 97.3333 115.266 94.08 112.338 91.64C109.41 89.0373 105.506 87.004 100.626 85.54C95.909 84.076 90.3783 82.9373 84.0343 82.124C77.853 81.148 71.4277 80.3347 64.7583 79.684C56.2996 78.708 48.329 77.5693 40.8463 76.268C33.3636 74.9667 26.857 73.096 21.3263 70.656C15.7956 68.216 11.4036 64.9627 8.15031 60.896C4.89698 56.8293 3.27031 51.5427 3.27031 45.036C3.27031 39.5053 4.16498 34.1373 5.95431 28.932C7.90631 23.7267 11.4036 19.172 16.4463 15.268C21.6516 11.2013 28.7276 7.948 37.6743 5.50799C46.7836 3.06799 58.577 1.84799 73.0543 1.84799C86.0676 1.84799 96.641 3.23066 104.774 5.996C113.07 8.76132 119.577 12.34 124.294 16.732C129.012 21.124 132.265 26.0853 134.054 31.616C136.006 37.1467 137.145 42.7587 137.47 48.452H114.778C114.128 42.596 112.582 37.96 110.142 34.544C107.865 30.9653 104.774 28.2813 100.87 26.492C96.9663 24.7027 92.3303 23.564 86.9623 23.076C81.5943 22.4253 75.5756 22.1 68.9063 22.1C53.7783 22.1 42.8796 24.052 36.2103 27.956C29.7036 31.86 26.4503 36.9027 26.4503 43.084C26.4503 46.5 27.9956 49.2653 31.0863 51.38C34.3396 53.332 38.4876 54.9587 43.5303 56.26C48.573 57.3987 54.1036 58.2933 60.1223 58.944C66.141 59.5947 71.9156 60.2453 77.4463 60.896C86.0676 61.872 94.1196 63.092 101.602 64.556C109.248 66.02 115.836 68.1347 121.366 70.9C127.06 73.6653 131.533 77.3253 134.786 81.88C138.202 86.4347 139.91 92.2907 139.91 99.448ZM313.002 73.096C312.839 84.9707 310.806 95.3813 306.902 104.328C303.16 113.112 297.792 120.432 290.798 126.288C283.966 132.144 275.751 136.536 266.154 139.464C256.719 142.392 246.227 143.856 234.678 143.856C222.966 143.856 212.392 142.392 202.958 139.464C193.523 136.699 185.39 132.388 178.558 126.532C171.888 120.676 166.683 113.275 162.942 104.328C159.2 95.3813 157.248 84.8893 157.086 72.852C157.086 60.8147 158.956 50.3227 162.698 41.376C166.439 32.2667 171.644 24.784 178.314 18.928C185.146 12.9093 193.279 8.43599 202.714 5.50799C212.311 2.41732 222.884 0.871991 234.434 0.871991C246.146 0.871991 256.8 2.33599 266.398 5.26399C275.995 8.19199 284.21 12.6653 291.042 18.684C298.036 24.54 303.404 32.0227 307.146 41.132C311.05 50.2413 313.002 60.896 313.002 73.096ZM180.266 72.364C180.591 89.932 185.39 102.864 194.662 111.16C204.096 119.293 217.435 123.36 234.678 123.36C251.92 123.36 265.34 119.293 274.938 111.16C284.535 103.027 289.496 90.0947 289.822 72.364C289.496 54.6333 284.454 41.7013 274.694 33.568C264.934 25.272 251.432 21.124 234.19 21.124C216.947 21.124 203.69 25.272 194.418 33.568C185.308 41.7013 180.591 54.6333 180.266 72.364ZM483.849 73.096C483.687 84.9707 481.653 95.3813 477.749 104.328C474.008 113.112 468.64 120.432 461.645 126.288C454.813 132.144 446.599 136.536 437.001 139.464C427.567 142.392 417.075 143.856 405.525 143.856C393.813 143.856 383.24 142.392 373.805 139.464C364.371 136.699 356.237 132.388 349.405 126.532C342.736 120.676 337.531 113.275 333.789 104.328C330.048 95.3813 328.096 84.8893 327.933 72.852C327.933 60.8147 329.804 50.3227 333.545 41.376C337.287 32.2667 342.492 24.784 349.161 18.928C355.993 12.9093 364.127 8.43599 373.561 5.50799C383.159 2.41732 393.732 0.871991 405.281 0.871991C416.993 0.871991 427.648 2.33599 437.245 5.26399C446.843 8.19199 455.057 12.6653 461.889 18.684C468.884 24.54 474.252 32.0227 477.993 41.132C481.897 50.2413 483.849 60.896 483.849 73.096ZM351.113 72.364C351.439 89.932 356.237 102.864 365.509 111.16C374.944 119.293 388.283 123.36 405.525 123.36C422.768 123.36 436.188 119.293 445.785 111.16C455.383 103.027 460.344 90.0947 460.669 72.364C460.344 54.6333 455.301 41.7013 445.541 33.568C435.781 25.272 422.28 21.124 405.037 21.124C387.795 21.124 374.537 25.272 365.265 33.568C356.156 41.7013 351.439 54.6333 351.113 72.364ZM650.305 137.756L627.857 138V67.728C627.857 63.4987 627.613 58.7813 627.125 53.576C626.8 48.3707 625.336 43.4907 622.733 38.936C620.13 34.3813 616.145 30.5587 610.777 27.468C605.409 24.2147 597.682 22.588 587.597 22.588C579.464 22.588 571.981 23.4827 565.149 25.272C558.317 26.8987 552.38 29.8267 547.337 34.056C542.457 38.2853 538.553 44.1413 535.625 51.624C532.86 59.1067 531.396 68.6227 531.233 80.172V137.756H508.541V8.436L531.233 8.67999L528.793 24.54C535.625 16.732 544.084 11.0387 554.169 7.45999C564.417 3.71866 575.885 1.84799 588.573 1.84799C597.845 1.84799 606.222 3.06799 613.705 5.50799C621.35 7.948 627.857 11.608 633.225 16.488C638.756 21.2053 642.985 27.224 645.913 34.544C648.841 41.864 650.305 50.404 650.305 60.164V137.756Z" fill="#1D1D1D"/>
</svg>
