<svg width="162" height="51" viewBox="0 0 162 51" fill="none" xmlns="http://www.w3.org/2000/svg">
<path d="M27.6217 27.79L22.6517 49H11.1017L0.811719 11.9H7.74172L16.8417 45.64L24.6817 11.9H34.7617L42.4617 45.57L51.5617 11.9H58.4917L48.2017 49H36.6517L31.6817 27.79L29.6517 16.45L27.6217 27.79ZM108.284 38.43C107.584 40.4367 106.557 42.21 105.204 43.75C103.851 45.29 102.217 46.5733 100.304 47.6C98.4375 48.6267 96.3375 49.3967 94.0041 49.91C91.6708 50.4233 89.2208 50.68 86.6541 50.68C83.2941 50.68 80.2375 50.26 77.4841 49.42C74.7308 48.6267 72.3508 47.39 70.3441 45.71C68.3841 44.03 66.8441 41.9067 65.7241 39.34C64.6508 36.7733 64.0908 33.7633 64.0441 30.31C64.0441 26.8567 64.6041 23.8467 65.7241 21.28C66.8908 18.6667 68.4775 16.52 70.4841 14.84C72.5375 13.1133 74.9641 11.83 77.7641 10.99C80.5641 10.1033 83.6208 9.66 86.9341 9.66C90.7608 9.66 94.0975 10.1967 96.9441 11.27C99.8375 12.3433 102.194 13.8833 104.014 15.89C105.881 17.85 107.211 20.23 108.004 23.03C108.797 25.83 109.007 28.9333 108.634 32.34H70.8341C71.3475 36.5867 72.9575 39.7367 75.6641 41.79C78.4175 43.8433 82.0808 44.87 86.6541 44.87C90.0141 44.87 92.9775 44.3567 95.5441 43.33C98.1108 42.2567 100.001 40.6 101.214 38.36L108.284 38.43ZM87.0741 15.47C82.7808 15.47 79.1875 16.4033 76.2941 18.27C73.4475 20.09 71.6975 22.9133 71.0441 26.74H102.124C102.077 24.9667 101.634 23.38 100.794 21.98C100.001 20.58 98.9275 19.4133 97.5741 18.48C96.2208 17.5 94.6341 16.7533 92.8141 16.24C90.9941 15.7267 89.0808 15.47 87.0741 15.47ZM161.185 30.87C161.138 34.2767 160.602 37.24 159.575 39.76C158.548 42.2333 157.078 44.2867 155.165 45.92C153.252 47.5533 150.942 48.7667 148.235 49.56C145.575 50.3533 142.565 50.75 139.205 50.75C135.565 50.7967 132.275 50.2367 129.335 49.07C126.395 47.95 123.922 46.34 121.915 44.24L122.335 49H115.825V-3.33786e-06H122.335V15.68C126.115 12.18 131.505 10.43 138.505 10.43C142.052 10.43 145.225 10.85 148.025 11.69C150.825 12.4833 153.205 13.72 155.165 15.4C157.125 17.08 158.618 19.2033 159.645 21.77C160.672 24.3367 161.185 27.37 161.185 30.87ZM122.405 30.66C122.498 35.7 123.992 39.2933 126.885 41.44C129.778 43.5867 133.768 44.66 138.855 44.66C143.895 44.66 147.745 43.61 150.405 41.51C153.065 39.3633 154.442 35.7467 154.535 30.66C154.442 25.5267 153.135 21.84 150.615 19.6C148.095 17.36 144.128 16.24 138.715 16.24C133.302 16.24 129.242 17.36 126.535 19.6C123.875 21.84 122.498 25.5267 122.405 30.66Z" fill="white"/>
</svg>
